<svg width="34" height="34" viewBox="0 0 34 34" fill="none" xmlns="http://www.w3.org/2000/svg">
<path fill-rule="evenodd" clip-rule="evenodd" d="M11.6912 23.1433C12.2106 22.5581 13.106 22.5048 13.6911 23.0242C14.3511 23.6099 15.5361 24.0837 17.0006 24.0837C18.4652 24.0837 19.6504 23.6099 20.3103 23.0242C20.8953 22.5048 21.7908 22.5581 22.3102 23.1433C22.8295 23.7284 22.7763 24.6239 22.1912 25.1432C20.9128 26.278 19.0119 26.917 17.0006 26.917C14.9894 26.917 13.0886 26.278 11.8102 25.1432C11.2251 24.6239 11.1718 23.7284 11.6912 23.1433Z" fill="#F1592A"/>
<path opacity="0.4" d="M4.52185 6.31772C4.52185 4.19063 6.2567 2.47949 8.38041 2.47949H25.6209C27.7447 2.47949 29.4795 4.19063 29.4795 6.31772C29.4795 7.09743 29.6844 7.86409 30.0746 8.54196L31.4718 10.9692C31.8384 11.6056 32.1362 12.1223 32.2081 12.9865C32.2373 13.3376 32.2406 13.6331 32.1958 13.9182C32.153 14.1914 32.0713 14.4102 32.0111 14.5713L32.0023 14.5953C31.2474 16.6219 29.2864 18.0628 26.99 18.0628C25.0686 18.0628 23.3789 17.0527 22.437 15.5332C21.1569 17.0818 19.1888 18.0628 17.0007 18.0628C14.8125 18.0628 12.8444 17.0818 11.5643 15.5332C10.6224 17.0527 8.93282 18.0628 7.01138 18.0628C4.71487 18.0628 2.75402 16.6219 1.99907 14.5951L1.99016 14.5713C1.93001 14.4102 1.84828 14.1914 1.80544 13.9182C1.76072 13.6331 1.76396 13.3376 1.7932 12.9865C1.86517 12.1223 2.16288 11.6056 2.52953 10.9692L3.9267 8.54196C4.31691 7.86409 4.52185 7.09743 4.52185 6.31772Z" fill="#F1592A"/>
<path d="M2.83399 16.0645V21.7058C2.83394 23.6241 2.8339 25.2061 3.00223 26.458C3.17894 27.7724 3.56423 28.9333 4.49372 29.8628C5.42321 30.7923 6.58406 31.1775 7.89848 31.3543C9.15048 31.5226 10.7323 31.5226 12.6507 31.5224H21.3507C23.269 31.5226 24.8508 31.5226 26.1029 31.3543C27.4173 31.1775 28.5781 30.7923 29.5075 29.8628C30.437 28.9333 30.8224 27.7724 30.9992 26.458C31.1675 25.2059 31.1673 23.6241 31.1673 21.7058V16.0646C30.4567 16.949 29.4682 17.6024 28.334 17.8946V21.6057C28.334 23.6493 28.331 25.0395 28.191 26.0804C28.0566 27.0807 27.8195 27.544 27.5041 27.8593C27.1887 28.1745 26.7255 28.4117 25.7253 28.5461C24.6844 28.6861 23.2942 28.6891 21.2507 28.6891H12.7507C10.7071 28.6891 9.31702 28.6861 8.27603 28.5461C7.27577 28.4117 6.8125 28.1745 6.49719 27.8593C6.18188 27.544 5.94477 27.0807 5.81029 26.0804C5.67034 25.0395 5.66732 23.6493 5.66732 21.6057V17.8946C4.53309 17.6024 3.54456 16.949 2.83399 16.0645Z" fill="#F1592A"/>
</svg>
