<svg width="32" height="32" viewBox="0 0 32 32" fill="none" xmlns="http://www.w3.org/2000/svg">
<path opacity="0.4" d="M29.6673 18.0667V18V10C29.6673 9.44772 29.2196 9 28.6673 9H3.33398C2.7817 9 2.33398 9.44772 2.33398 10V18V18.0665C2.33397 20.5211 2.33396 22.4649 2.53841 23.9857C2.7486 25.5488 3.1917 26.8135 4.18945 27.8112C5.1872 28.8089 6.4519 29.252 8.01497 29.4623C9.5357 29.6667 11.4796 29.6667 13.9341 29.6667H14.0007H18.0007H18.0672C20.5217 29.6667 22.4656 29.6667 23.9864 29.4623C25.5495 29.252 26.8141 28.8089 27.8119 27.8112C28.8096 26.8135 29.2527 25.5488 29.4629 23.9857C29.6673 22.4649 29.6673 20.5211 29.6673 18.0667Z" fill="#F1592A"/>
<path d="M18.6673 13C19.2196 13 19.6673 13.4477 19.6673 14C19.6673 14.5523 19.2196 15 18.6673 15H13.334C12.7817 15 12.334 14.5523 12.334 14C12.334 13.4477 12.7817 13 13.334 13H18.6673Z" fill="#F1592A"/>
<path d="M20.0383 2.33301C21.0929 2.33301 21.9772 2.33205 22.7063 2.39942C23.4633 2.46944 24.1545 2.6202 24.8156 2.97624C25.4764 3.33228 25.9672 3.81797 26.4197 4.39942C26.8556 4.95938 27.3095 5.67989 27.852 6.54004L29.4809 9.12468C29.6303 9.36142 29.6857 9.62601 29.6593 9.88118C29.6007 9.38482 29.1793 8.99968 28.6672 8.99968H26.3677L25.6203 7.81478C25.052 6.91382 24.6707 6.31328 24.3273 5.87208C24.0012 5.45312 23.7668 5.25718 23.5331 5.13118C23.2991 5.00518 23.0011 4.91348 22.4549 4.86296C21.8805 4.80986 21.1429 4.80957 20.0383 4.80957H17.3025V8.99968H14.6997V4.80957H12.0357C10.9552 4.80957 10.2347 4.81057 9.67237 4.86166C9.13784 4.91026 8.84452 4.99678 8.61379 5.11817C8.383 5.2397 8.14943 5.43028 7.82212 5.83561C7.47799 6.26186 7.09509 6.84208 6.52133 7.71322L5.67368 8.99968H3.33384C2.82132 8.99984 2.39832 9.38549 2.34035 9.88249C2.31287 9.61898 2.37392 9.34546 2.53305 9.10385L4.31431 6.39942C4.86231 5.56737 5.32095 4.86814 5.75832 4.3265C6.21244 3.76418 6.70068 3.29452 7.35207 2.9515C8.00352 2.60848 8.68156 2.46434 9.42368 2.39681C10.1383 2.33184 11.0038 2.33301 12.0357 2.33301H20.0383Z" fill="#F1592A"/>
</svg>
