<svg width="32" height="32" viewBox="0 0 32 32" fill="none" xmlns="http://www.w3.org/2000/svg">
<path opacity="0.4" d="M16.5251 1.74895C14.8639 1.63957 13.1314 1.63978 11.4736 1.74895C6.22848 2.09438 2.05689 6.29105 1.71375 11.5515C1.65011 12.527 1.65011 13.5358 1.71375 14.5113C1.84189 16.4758 2.70448 18.2395 3.65331 19.6602C3.88964 20.1227 3.78036 20.861 3.25699 21.8435L3.22992 21.8943C3.05492 22.2226 2.87596 22.5583 2.77156 22.8478C2.66003 23.1571 2.53064 23.6858 2.84233 24.2123C3.12596 24.6914 3.57692 24.8613 3.92161 24.9274C4.2036 24.9814 4.54577 24.9895 4.85189 24.9967L4.90792 24.9981C6.5496 25.0377 7.71439 24.5669 8.63776 23.8923C8.77947 23.7887 8.88399 23.7126 8.96535 23.6554C9.08867 23.7023 9.25151 23.7686 9.47809 23.861C10.1072 24.1177 10.8194 24.2707 11.4736 24.3138C13.1314 24.423 14.8639 24.4233 16.5251 24.3138C21.7703 23.9685 25.9419 19.7718 26.2849 14.5113C26.3487 13.5358 26.3487 12.527 26.2849 11.5515C25.9419 6.29105 21.7703 2.09438 16.5251 1.74895Z" fill="#F1592A"/>
<path fill-rule="evenodd" clip-rule="evenodd" d="M10 17.0003C9.44772 17.0003 9 16.5526 9 16.0003C9 15.4481 9.44772 15.0003 10 15.0003H18C18.5522 15.0003 19 15.4481 19 16.0003C19 16.5526 18.5522 17.0003 18 17.0003H10ZM10 11.667C9.44772 11.667 9 11.2193 9 10.667C9 10.1147 9.44772 9.66699 10 9.66699H14C14.5522 9.66699 15 10.1147 15 10.667C15 11.2193 14.5522 11.667 14 11.667H10Z" fill="#F1592A"/>
<path d="M28.2815 14.6421C27.8735 20.8965 22.9114 25.8982 16.6572 26.3101C14.9084 26.4253 13.0881 26.425 11.3429 26.3101C10.6237 26.2627 10.2641 26.239 10.1398 26.3469C10.0405 26.4331 9.99149 26.5555 10.0038 26.6865C10.0193 26.8503 10.2565 27.0486 10.7308 27.445C12.2594 28.7226 14.1606 29.551 16.286 29.6905C17.8518 29.7933 19.4848 29.793 21.0475 29.6905C21.6686 29.6498 22.3448 29.5051 22.943 29.2619L23.0726 29.2094C23.1911 29.1613 23.2503 29.1373 23.315 29.1331C23.363 29.1301 23.4159 29.1366 23.4618 29.1511C23.5235 29.1707 23.5756 29.2087 23.6798 29.2845C24.5587 29.9241 25.667 30.3694 27.2247 30.3319L27.2787 30.3307C27.5654 30.3241 27.8919 30.3163 28.162 30.2647C28.4939 30.2014 28.9376 30.0367 29.2172 29.5662C29.5258 29.0473 29.396 28.5271 29.289 28.2314C29.1891 27.9554 29.0186 27.6369 28.8548 27.3309L28.8283 27.2814C28.3379 26.3643 28.25 25.7011 28.4542 25.2983C29.3494 23.9626 30.1667 22.2991 30.2883 20.4426C30.3484 19.5251 30.3484 18.5765 30.2883 17.6591C30.2111 16.4794 29.9291 15.3566 29.4775 14.3259C29.169 13.6217 29.0147 13.2696 28.7698 13.2555C28.7111 13.2521 28.6428 13.264 28.5888 13.2873C28.3635 13.3841 28.3362 13.8034 28.2815 14.6421Z" fill="#F1592A"/>
</svg>
