<svg width="32" height="32" viewBox="0 0 32 32" fill="none" xmlns="http://www.w3.org/2000/svg">
<path opacity="0.4" d="M15.9993 5.66602C12.5719 5.66602 9.63395 7.17456 7.35976 8.94999C5.08352 10.727 3.40103 12.8257 2.4599 14.1453L2.38894 14.2443C2.0514 14.7137 1.66602 15.2497 1.66602 15.9993C1.66602 16.7489 2.0514 17.2849 2.38894 17.7544L2.4599 17.8533C3.40103 19.1731 5.08352 21.2716 7.35976 23.0487C9.63395 24.8241 12.5719 26.3327 15.9993 26.3327C19.4268 26.3327 22.3647 24.8241 24.6389 23.0487C26.9152 21.2716 28.5976 19.1731 29.5388 17.8533L29.6097 17.7544C29.9473 17.2849 30.3327 16.7489 30.3327 15.9993C30.3327 15.2497 29.9473 14.7137 29.6097 14.2443L29.5388 14.1453C28.5976 12.8257 26.9152 10.727 24.6389 8.94999C22.3647 7.17456 19.4268 5.66602 15.9993 5.66602Z" fill="#F1592A"/>
<path fill-rule="evenodd" clip-rule="evenodd" d="M16.0007 20.6673C13.4233 20.6673 11.334 18.578 11.334 16.0007C11.334 13.4233 13.4233 11.334 16.0007 11.334C18.578 11.334 20.6673 13.4233 20.6673 16.0007C20.6673 18.578 18.578 20.6673 16.0007 20.6673Z" fill="#F1592A"/>
</svg>
