<svg width="32" height="32" viewBox="0 0 32 32" fill="none" xmlns="http://www.w3.org/2000/svg">
<path opacity="0.4" d="M6.79786 4.33399H16.0796C16.9319 4.33391 17.6978 4.33384 18.3176 4.41675C18.9944 4.50727 19.6887 4.71743 20.2574 5.28319C20.826 5.84895 21.0774 6.92003 21.1684 7.59328C26.2823 7.9058 30.3327 12.1308 30.3327 17.2969V20.936C30.3328 21.1624 30.333 21.384 30.3076 21.5867C30.1232 23.0587 28.3659 24.2432 26.8862 24.4267C26.3255 26.3008 24.5804 27.6673 22.5144 27.6673C20.4486 27.6673 18.7034 26.3007 18.1427 24.4265H13.8559C13.2953 26.3007 11.5502 27.6673 9.48419 27.6673C7.41383 27.6673 5.6657 26.2949 5.1089 24.4147C4.65737 24.3739 3.75297 24.2556 3.29482 23.9924C2.79961 23.708 2.38837 23.2989 2.10246 22.8063C1.83795 22.3504 1.74501 21.8752 1.70409 21.426C1.66595 21.0075 1.66599 20.5028 1.66603 19.9417L1.66602 9.43932C1.66594 8.59138 1.66587 7.82952 1.74921 7.21287C1.84019 6.53963 2.05146 5.84895 2.62015 5.28319C3.18885 4.71743 3.88311 4.50727 4.55985 4.41675C5.17971 4.33384 5.94553 4.33391 6.79786 4.33399Z" fill="#F1592A"/>
<path d="M21.2129 18.78C21.6257 18.6579 22.0632 18.5921 22.5158 18.5921C24.5818 18.5921 26.3269 19.9588 26.8876 21.8328C27.4772 21.8328 27.728 21.5856 27.728 21.1848V17.2959C27.728 13.5768 24.8656 10.5228 21.2129 10.1953V18.78Z" fill="#F1592A"/>
<path d="M9.48578 21.1855C8.40633 21.1855 7.53125 22.0561 7.53125 23.1299C7.53125 24.2038 8.40633 25.0743 9.48578 25.0743C10.5652 25.0743 11.4403 24.2038 11.4403 23.1299C11.4403 22.0561 10.5652 21.1855 9.48578 21.1855Z" fill="#F1592A"/>
<path d="M22.5151 21.1855C21.4356 21.1855 20.5605 22.0561 20.5605 23.1299C20.5605 24.2038 21.4356 25.0743 22.5151 25.0743C23.5945 25.0743 24.4697 24.2038 24.4697 23.1299C24.4697 22.0561 23.5945 21.1855 22.5151 21.1855Z" fill="#F1592A"/>
</svg>
