<svg width="32" height="32" viewBox="0 0 32 32" fill="none" xmlns="http://www.w3.org/2000/svg">
<path opacity="0.4" d="M1.66602 15.9993C1.66602 23.9155 8.08327 30.3327 15.9993 30.3327C23.9155 30.3327 30.3327 23.9155 30.3327 15.9993C30.3327 8.08327 23.9155 1.66602 15.9993 1.66602C8.08327 1.66602 1.66602 8.08327 1.66602 15.9993Z" fill="#F1592A"/>
<path d="M15.9988 8.33398C16.7471 8.33398 17.3364 8.89916 17.7128 9.66177L18.9693 12.1957C19.0075 12.2741 19.0977 12.3846 19.2335 12.4856C19.3692 12.5865 19.502 12.6422 19.5893 12.6569L21.864 13.0379C22.6856 13.176 23.3743 13.5787 23.5979 14.28C23.8213 14.9808 23.494 15.7089 22.9032 16.3008L21.1355 18.0831C21.0655 18.1537 20.9869 18.2868 20.9377 18.4601C20.8889 18.6323 20.8845 18.7889 20.9068 18.8903L20.9071 18.8917L21.4127 21.0957C21.6223 22.0131 21.5528 22.9228 20.9059 23.3983C20.2567 23.8755 19.3695 23.664 18.5635 23.184L16.4312 21.9113C16.3417 21.8579 16.188 21.8145 16.0024 21.8145C15.8181 21.8145 15.6611 21.8572 15.5657 21.9128L15.5644 21.9135L13.4364 23.1837C12.6313 23.6653 11.7453 23.8732 11.096 23.3955C10.4495 22.9199 10.3765 22.0119 10.5868 21.0953L11.0923 18.8917L11.0926 18.8903C11.1147 18.7889 11.1104 18.6323 11.0615 18.4601C11.0123 18.2868 10.9339 18.1537 10.8638 18.0831L9.09547 16.3001C8.50841 15.7083 8.1822 14.9807 8.4038 14.2809C8.62605 13.5792 9.31339 13.176 10.1356 13.0379L12.4083 12.6571C12.4916 12.6427 12.6232 12.5875 12.7586 12.4863C12.8941 12.385 12.9847 12.2743 13.0229 12.1957L13.0248 12.1918L14.2797 9.6611C14.6596 8.89913 15.2513 8.33398 15.9988 8.33398Z" fill="#F1592A"/>
</svg>
