<svg width="60" height="60" viewBox="0 0 60 60" fill="none" xmlns="http://www.w3.org/2000/svg">
<rect width="60" height="60" rx="16" fill="#F1592A"/>
<path opacity="0.4" d="M33.1751 16.0234C33.2688 16.1806 33.3459 16.3337 33.4069 16.48C33.8284 17.283 33.9801 18.212 33.7441 19.0813C33.4955 19.9968 32.8389 20.7536 31.8368 21.1507C31.3924 21.3267 31.2423 21.4956 31.1769 21.5944C31.0961 21.7163 31.0497 21.8687 30.9892 22.2013L30.9727 22.2939C30.9211 22.5877 30.8419 23.0393 30.6287 23.4694C30.3667 23.9981 29.9376 24.4492 29.2699 24.802C27.4383 25.7697 24.9658 25.3671 22.7451 23.0206C21.6705 21.8851 21.2682 21.565 20.547 21.4889C20.5335 21.4874 20.5201 21.4857 20.5067 21.4838C20.0561 21.4176 19.1481 21.4751 18.1257 21.9725C16.5735 24.2633 15.666 27.0279 15.666 30.0035C15.666 37.8029 21.8954 44.1473 29.6501 44.3327C29.5504 44.2587 29.4611 44.1892 29.3829 44.1257C28.566 43.5136 28.1065 42.7497 28.0591 41.8657C28.0147 41.0412 28.3417 40.2813 28.6988 39.6673C29.2195 38.772 29.3776 38.4825 29.4595 38.1541C29.5464 37.8055 29.5536 37.3868 29.5536 36.1963C29.5536 35.5399 29.6495 34.8783 29.9433 34.2869C30.2489 33.672 30.738 33.1961 31.404 32.8883C32.65 32.3125 34.4597 32.3524 36.8609 32.8327C37.1367 32.8877 37.4267 32.8461 37.8084 32.6891C38.1256 32.5587 38.4287 32.3851 38.8019 32.1712C38.9184 32.1045 39.0417 32.0339 39.1744 31.9595C40.2192 31.3732 41.6473 30.6761 43.4727 31.3176C43.5164 31.3329 43.5588 31.3513 43.6 31.3725C43.7731 31.4619 43.9863 31.5937 44.2249 31.7685C44.2961 31.1899 44.3327 30.6008 44.3327 30.0035C44.3327 23.1781 39.5628 17.4688 33.1751 16.0234Z" fill="white"/>
<path d="M29.9357 15.6689C30.9623 16.2527 31.4442 16.9475 31.5708 17.2693C31.5857 17.3074 31.603 17.3446 31.6226 17.3806C31.8608 17.8193 31.9004 18.2419 31.8152 18.5558C31.7373 18.8425 31.5375 19.117 31.1011 19.2899C30.3722 19.5787 29.8525 19.9724 29.5105 20.4888C29.1838 20.9823 29.0853 21.4979 29.0227 21.8413L29.0131 21.8935C28.9486 22.2486 28.9176 22.419 28.8378 22.5799C28.7793 22.6981 28.6686 22.8569 28.3368 23.0322C27.5026 23.4729 25.9766 23.5229 24.1988 21.6445C23.1718 20.5592 22.309 19.6691 20.7778 19.5007C20.6281 19.4796 20.4638 19.4661 20.2871 19.4619C22.8255 17.1216 26.2138 15.6855 29.9357 15.6689Z" fill="white"/>
<path d="M43.7649 34.0085C43.3353 33.5769 42.9546 33.3032 42.7396 33.1801C41.8205 32.8834 41.0932 33.1752 40.1528 33.7028C40.0624 33.7536 39.9666 33.8085 39.867 33.8657C39.4746 34.0912 39.0192 34.3528 38.5689 34.538C37.9697 34.7844 37.2624 34.9517 36.4684 34.7929C34.1076 34.3208 32.8618 34.4169 32.2426 34.703C31.9761 34.8261 31.8302 34.9826 31.734 35.1762C31.6261 35.3933 31.5533 35.7164 31.5533 36.1954V36.329C31.5536 37.3354 31.5538 38.0192 31.3998 38.637C31.241 39.2738 30.9254 39.8162 30.4865 40.5704L30.4274 40.6718C30.1404 41.1656 30.0428 41.5134 30.0558 41.7576C30.0654 41.9352 30.1385 42.1957 30.5932 42.5328C30.6062 42.5424 30.619 42.5524 30.6316 42.5626C31.0678 42.9201 31.9846 43.5302 33.0892 44.0021C38.2157 42.8757 42.3132 39.0052 43.7649 34.0085Z" fill="white"/>
</svg>
