<svg width="60" height="60" viewBox="0 0 60 60" fill="none" xmlns="http://www.w3.org/2000/svg">
<rect width="60" height="60" rx="16" fill="#FEBC2F"/>
<path opacity="0.4" d="M32.8933 43.4678C36.4624 41.6315 43 37.1655 43.0001 28.9834V24.3311C43.0001 22.5345 43.0295 21.2811 42.2515 20.0251C41.486 18.7892 40.6181 18.3766 39.3908 17.766C36.7201 16.4372 33.4788 15.667 30.0001 15.667C26.5215 15.667 23.2801 16.4372 20.6095 17.766C19.3822 18.3766 18.5143 18.7892 17.7488 20.0251C16.9709 21.2811 17.0001 22.5345 17.0001 24.3311V28.9834C17.0003 37.1655 23.5379 41.6315 27.1069 43.4678L27.1558 43.493C28.1129 43.9855 28.7893 44.3337 30.0001 44.3337C31.2109 44.3337 31.8875 43.9855 32.8445 43.493L32.8933 43.4678Z" fill="white"/>
<path fill-rule="evenodd" clip-rule="evenodd" d="M30.0007 21.667C32.0257 21.667 33.6673 23.3086 33.6673 25.3337V26.5081C34.832 26.9202 35.6673 28.0278 35.6673 29.3337V31.3337C35.6673 32.9905 34.3241 34.3337 32.6673 34.3337H27.334C25.6773 34.3335 24.334 32.9905 24.334 31.3337V29.3337C24.334 28.0279 25.1696 26.9204 26.334 26.5081V25.3337C26.334 23.3087 27.9757 21.6672 30.0007 21.667ZM30.0007 23.667C29.0803 23.6672 28.334 24.4133 28.334 25.3337V26.3337H31.6673V25.3337C31.6673 24.4132 30.9211 23.667 30.0007 23.667Z" fill="white"/>
</svg>
