<svg width="60" height="60" viewBox="0 0 60 60" fill="none" xmlns="http://www.w3.org/2000/svg">
<rect width="60" height="60" rx="16" fill="#063B7D"/>
<path opacity="0.4" d="M40.7755 17.218C41.2735 17.2809 41.7358 17.4568 42.1389 17.8598C42.5419 18.2629 42.7178 18.7251 42.7806 19.2232C42.8339 19.6442 42.8064 20.2021 42.7814 20.7106C42.6321 23.7617 41.7116 26.7493 39.408 29.053L37.551 30.91C36.7406 31.7204 36.3835 32.0929 36.2072 32.4371C36.085 32.676 36.0251 32.953 36.161 33.6678C36.31 34.2633 36.4968 35.0093 36.498 35.7055C36.4995 36.4725 36.2869 37.2716 35.6101 37.9484C34.9645 38.594 34.2054 39.0611 33.3199 39.0611C32.4345 39.0611 31.6753 38.594 31.0296 37.9484L22.0503 28.969C21.4047 28.3234 20.9375 27.5641 20.9375 26.6788C20.9375 25.7933 21.4046 25.0341 22.0503 24.3885C22.727 23.7117 23.5261 23.4992 24.2931 23.5006C24.9894 23.502 25.7354 23.6887 26.3309 23.8377C27.0456 23.9735 27.3226 23.9137 27.5615 23.7914C27.9058 23.6151 28.2782 23.258 29.0887 22.4476L30.9456 20.5906C33.2493 18.287 36.2369 17.3665 39.2881 17.2173C39.7966 17.1923 40.3545 17.1648 40.7755 17.218Z" fill="white"/>
<path fill-rule="evenodd" clip-rule="evenodd" d="M34.9961 23.75C34.9961 23.0597 35.5557 22.5 36.2461 22.5H36.2573C36.9477 22.5 37.5073 23.0597 37.5073 23.75C37.5073 24.4404 36.9477 25 36.2573 25H36.2461C35.5557 25 34.9961 24.4404 34.9961 23.75Z" fill="white"/>
<path fill-rule="evenodd" clip-rule="evenodd" d="M21.5897 31.2834C22.0534 31.7471 22.0534 32.499 21.5897 32.9627L19.2147 35.3377C18.7509 35.8015 17.9991 35.8015 17.5353 35.3377C17.0716 34.874 17.0716 34.1221 17.5353 33.6584L19.9103 31.2834C20.3741 30.8196 21.1259 30.8196 21.5897 31.2834ZM23.4728 34.8459C23.9366 34.3821 24.6884 34.3821 25.1522 34.8459C25.6159 35.3096 25.6159 36.0615 25.1522 36.5252L19.2147 42.4627C18.7509 42.9265 17.9991 42.9265 17.5353 42.4627C17.0716 41.999 17.0716 41.2471 17.5353 40.7834L23.4728 34.8459ZM28.7148 38.4084C29.1784 38.8721 29.1784 39.624 28.7148 40.0877L26.3397 42.4627C25.8759 42.9265 25.1241 42.9265 24.6603 42.4627C24.1966 41.999 24.1966 41.2471 24.6603 40.7834L27.0353 38.4084C27.4991 37.9446 28.251 37.9446 28.7148 38.4084Z" fill="white"/>
</svg>
