<svg width="60" height="60" viewBox="0 0 60 60" fill="none" xmlns="http://www.w3.org/2000/svg">
<rect width="60" height="60" rx="16" fill="#EFEFEF"/>
<path opacity="0.4" d="M39.1148 26.0089C39.6447 25.966 40.1811 26.0791 40.6464 26.3403C40.981 26.5281 41.2307 26.7801 41.4111 26.9868C41.5108 27.1009 41.6455 27.2718 41.7436 27.3961C42.3516 28.1346 42.9732 28.894 43.3382 29.4121C43.7151 29.9472 44.0006 30.4569 44.1584 31.0345C44.3912 31.8869 44.3912 32.7797 44.1584 33.6321C43.941 34.4281 43.5031 35.1132 43.0663 35.6849C42.8018 36.0311 42.4811 36.4027 42.1986 36.73C42.044 36.9091 41.824 37.1687 41.7079 37.3097C41.3864 37.702 41.0691 38.0891 40.6464 38.3263C40.1811 38.5875 39.6447 38.7007 39.1148 38.6579C38.6379 38.6192 37.9835 38.3205 37.4996 38.0991C37.0248 37.8869 36.1294 37.4869 35.7883 36.4775C35.6643 36.1103 35.6652 35.7179 35.6662 35.3527V29.314C35.6652 28.9488 35.6643 28.5563 35.7883 28.1892C36.1294 27.1798 37.0248 26.7797 37.4996 26.5675C37.9835 26.3461 38.6379 26.0474 39.1148 26.0089Z" fill="#182031"/>
<path opacity="0.4" d="M20.8842 26.0089C20.3543 25.966 19.8179 26.0791 19.3526 26.3403C19.018 26.5281 18.7683 26.7801 18.5879 26.9868C18.4882 27.1009 18.3535 27.2718 18.2554 27.3961C17.6474 28.1346 17.0258 28.894 16.6608 29.4121C16.2839 29.9472 15.9984 30.4569 15.8407 31.0345C15.6078 31.8869 15.6078 32.7797 15.8407 33.6321C16.0581 34.4281 16.4959 35.1132 16.9327 35.6849C17.1972 36.0311 17.5179 36.4027 17.8004 36.73C17.9549 36.9091 18.1749 37.1687 18.2912 37.3097C18.6126 37.702 18.9299 38.0891 19.3526 38.3263C19.8179 38.5875 20.3543 38.7007 20.8842 38.6579C21.3611 38.6192 22.0155 38.3205 22.4994 38.0991C22.9742 37.8869 23.8696 37.4869 24.2107 36.4775C24.3347 36.1103 24.3337 35.7179 24.3328 35.3527V29.314C24.3337 28.9488 24.3347 28.5563 24.2107 28.1892C23.8696 27.1798 22.9742 26.7797 22.4994 26.5675C22.0155 26.3461 21.3611 26.0474 20.8842 26.0089Z" fill="#182031"/>
<path d="M38 38.3238V38.7354C38 40.0931 36.5021 41.6687 34 41.6687H31.3333C30.5969 41.6687 30 42.2656 30 43.002C30 43.7383 30.5969 44.3354 31.3333 44.3354H34C37.3889 44.3354 40.6667 42.0904 40.6667 38.7354V38.3174C40.6603 38.321 40.6539 38.3247 40.6473 38.3283C40.182 38.5895 39.6456 38.7027 39.1157 38.6598C38.7897 38.6334 38.3808 38.4855 38 38.3238Z" fill="#182031"/>
<path d="M22.0379 26.361C22.4199 23.1267 25.6651 20.3337 30.0002 20.3337C34.3354 20.3337 37.5808 23.1269 37.9625 26.3613C38.3538 26.1934 38.7792 26.0364 39.116 26.0092C39.6433 25.9665 40.1772 26.0784 40.641 26.337C40.249 21.3329 35.4528 17.667 30.0002 17.667C24.5475 17.667 19.7512 21.3331 19.3594 26.3374C19.8234 26.0785 20.3575 25.9665 20.8851 26.0092C21.2217 26.0364 21.6468 26.1932 22.0379 26.361Z" fill="#182031"/>
</svg>
