<svg width="16" height="16" viewBox="0 0 16 16" fill="none" xmlns="http://www.w3.org/2000/svg">
<path d="M5.33333 5.59967V10.6663C5.33333 10.8552 5.26933 11.0137 5.14133 11.1417C5.01333 11.2697 4.85511 11.3335 4.66667 11.333C4.47822 11.3326 4.32 11.2686 4.192 11.141C4.064 11.0135 4 10.8552 4 10.6663V3.99967C4 3.81079 4.064 3.65256 4.192 3.52501C4.32 3.39745 4.47822 3.33345 4.66667 3.33301H11.3333C11.5222 3.33301 11.6807 3.39701 11.8087 3.52501C11.9367 3.65301 12.0004 3.81123 12 3.99967C11.9996 4.18812 11.9356 4.34656 11.808 4.47501C11.6804 4.60345 11.5222 4.66723 11.3333 4.66634H6.26667L12.2 10.5997C12.3222 10.7219 12.3833 10.8775 12.3833 11.0663C12.3833 11.2552 12.3222 11.4108 12.2 11.533C12.0778 11.6552 11.9222 11.7163 11.7333 11.7163C11.5444 11.7163 11.3889 11.6552 11.2667 11.533L5.33333 5.59967Z" fill="#182031"/>
</svg>
