<svg width="32" height="32" viewBox="0 0 32 32" fill="none" xmlns="http://www.w3.org/2000/svg">
<path d="M24.5771 8.33268H27.2886C28.5667 8.33268 29.2059 8.33268 29.603 8.7232C30 9.11374 30 9.74227 30 10.9993V16.3327C30 17.5897 30 18.2183 29.603 18.6088C29.2059 18.9993 28.5667 18.9993 27.2886 18.9993H26.4927C26.4735 18.5407 26.2868 18.0876 25.9328 17.7375L17.7986 9.68982H16.4428L14.7696 11.3452C13.7927 12.3118 12.2374 12.397 11.1586 11.5431L10.8409 11.2917C10.2917 10.857 10.017 10.6396 10.0007 10.3426C9.98447 10.0456 10.2337 9.80047 10.7323 9.31015L12.0551 8.00916C13.2306 6.85304 13.8184 6.27498 14.5658 5.9705C15.3132 5.66602 16.3847 5.66602 18.0472 5.66602C19.2696 5.66602 19.8808 5.66602 20.4572 5.83764C21.0335 6.00928 21.5422 6.34272 22.5592 7.00962L24.5771 8.33268Z" fill="#1C396B"/>
<path opacity="0.4" d="M4.66667 9.66602H8.48489C8.37324 9.90966 8.32073 10.1793 8.33589 10.4527C8.36203 10.9243 8.58708 11.3627 8.95508 11.6589L10.4247 12.8415C12.1509 14.2308 14.6415 14.0911 16.2031 12.5203L17.179 11.5385L24.6667 19.0708C25.0148 19.4209 25.1983 19.874 25.2174 20.3327C25.2384 20.8443 25.055 21.3627 24.6667 21.7533C23.9303 22.494 22.7364 22.494 22 21.7533L21.3334 21.0827C22.0698 21.8235 22.0698 23.0244 21.3334 23.7652C20.597 24.506 19.4031 24.506 18.6667 23.7652L17.3334 22.4239C18.0698 23.1647 18.0698 24.3657 17.3334 25.1064C16.597 25.8472 15.4031 25.8472 14.6667 25.1064L12.6667 23.0945C13.4031 23.8353 13.4031 25.0364 12.6667 25.7771C11.9303 26.5179 10.7364 26.5179 10 25.7771L5.45091 21.1332C5.08504 20.7597 4.90211 20.5731 4.67551 20.47C4.44891 20.3671 4.14791 20.3497 3.54591 20.3151C2.99241 20.2832 2.64209 20.1937 2.39052 19.9421C2 19.5516 2 18.9231 2 17.666V12.3327C2 11.0756 2 10.4471 2.39052 10.0565C2.78104 9.66602 3.40959 9.66602 4.66667 9.66602Z" fill="#1C396B"/>
</svg>
