<svg width="32" height="32" viewBox="0 0 32 32" fill="none" xmlns="http://www.w3.org/2000/svg">
<path opacity="0.4" d="M17.5171 30.1095C16.8832 30.3345 16.2106 30.3335 15.4506 30.3326C13.4163 30.3326 11.5395 30.3325 10.2345 30.1793C8.8842 30.0209 7.72725 29.6835 6.74722 28.8891C6.38748 28.5977 6.05978 28.2682 5.76973 27.9066C4.97956 26.9215 4.64396 25.7586 4.48632 24.4013C4.33394 23.0895 4.33396 21.4409 4.33399 19.3959V13.2978C4.33396 10.9219 4.33393 9.00671 4.53538 7.5005C4.74454 5.93668 5.19201 4.61999 6.23234 3.57424C7.27268 2.5285 8.58256 2.07871 10.1383 1.86846C11.6367 1.66595 13.7315 1.66598 16.0952 1.66602C18.459 1.66598 20.3642 1.66595 21.8627 1.86846C23.4184 2.07871 24.7283 2.5285 25.7686 3.57424C26.809 4.61999 27.2564 5.93668 27.4655 7.5005C27.667 9.00674 27.667 10.9219 27.667 13.2979L27.6671 17.9302C27.6684 18.8147 27.6696 19.5997 27.371 20.3247C27.0722 21.0498 26.5191 21.6039 25.896 22.2285L19.5188 28.6386C18.9823 29.1795 18.5072 29.6582 17.9008 29.9498C17.7758 30.0099 17.6478 30.0633 17.5171 30.1095Z" fill="#1C396B"/>
<path d="M17.5171 30.1103C17.6476 30.0639 17.7758 30.0105 17.9007 29.9505C18.5072 29.6589 18.9822 29.1801 19.5188 28.6393L25.8959 22.2291C26.5191 21.6047 27.0722 21.0504 27.3708 20.3255C27.5026 20.0057 27.576 19.6745 27.6168 19.3281H24.9758C23.1523 19.3281 22.2875 19.3292 21.1316 19.4845C19.9315 19.646 18.921 19.9912 18.1184 20.7937C17.3159 21.5963 16.9707 22.6068 16.8092 23.8069C16.6542 24.9605 16.6542 25.8352 16.6543 27.6511V30.2951C16.952 30.2644 17.2383 30.2092 17.5171 30.1103Z" fill="#1C396B"/>
<path fill-rule="evenodd" clip-rule="evenodd" d="M22.3327 9.33398C22.3327 9.88626 21.885 10.334 21.3327 10.334H10.666C10.1137 10.334 9.66602 9.88628 9.66602 9.33398C9.66602 8.7817 10.1137 8.33398 10.666 8.33398H21.3327C21.885 8.33398 22.3327 8.7817 22.3327 9.33398Z" fill="#1C396B"/>
<path fill-rule="evenodd" clip-rule="evenodd" d="M16.9994 14.666C16.9994 15.2183 16.5517 15.666 15.9994 15.666H10.666C10.1137 15.666 9.66602 15.2183 9.66602 14.666C9.66602 14.1136 10.1137 13.666 10.666 13.666H15.9994C16.5517 13.666 16.9994 14.1136 16.9994 14.666Z" fill="#1C396B"/>
</svg>
