<svg width="32" height="32" viewBox="0 0 32 32" fill="none" xmlns="http://www.w3.org/2000/svg">
<path opacity="0.4" fill-rule="evenodd" clip-rule="evenodd" d="M25.2146 13.2684C24.9988 12.7911 24.5235 12.4844 23.9996 12.4844C23.4759 12.4844 23.0006 12.7911 22.7847 13.2684L18.7978 22.087C18.7258 22.1329 18.6551 22.1841 18.5862 22.2411C18.3163 22.4645 18.1192 22.7406 17.9707 23.0447C17.6847 23.6302 17.603 24.1819 17.7132 24.7726C17.8034 25.2559 18.0244 25.7451 18.2332 26.207L18.2638 26.2746C19.3176 28.6101 21.435 30.3334 23.9994 30.3334C26.5636 30.3334 28.681 28.6101 29.735 26.2746L29.7655 26.207C29.9743 25.7451 30.1954 25.2559 30.2855 24.7726C30.3958 24.1819 30.314 23.6302 30.028 23.0447C29.8795 22.7406 29.6823 22.4645 29.4126 22.2411C29.344 22.1843 29.2736 22.1334 29.2019 22.0877L25.2146 13.2684ZM26.0851 21.6667L23.9996 17.0542L21.9143 21.6667H26.0851Z" fill="#1C396B"/>
<path opacity="0.4" fill-rule="evenodd" clip-rule="evenodd" d="M9.21461 13.2684C8.99881 12.7911 8.52351 12.4844 7.99968 12.4844C7.47584 12.4844 7.00053 12.7911 6.78473 13.2684L2.79779 22.087C2.72573 22.1329 2.65501 22.1841 2.58611 22.2411C2.31635 22.4645 2.11927 22.7406 1.97065 23.0447C1.68467 23.6302 1.603 24.1819 1.71319 24.7726C1.80336 25.2559 2.02443 25.7451 2.23317 26.207L2.26375 26.2746C3.31767 28.6101 5.43501 30.3334 7.99935 30.3334C10.5637 30.3334 12.681 28.6101 13.7349 26.2746L13.7655 26.207C13.9743 25.7451 14.1953 25.2559 14.2855 24.7726C14.3957 24.1819 14.314 23.6302 14.028 23.0447C13.8795 22.7406 13.6823 22.4645 13.4125 22.2411C13.344 22.1843 13.2736 22.1334 13.2018 22.0877L9.21461 13.2684ZM10.085 21.6667L7.99968 17.0542L5.91433 21.6667H10.085Z" fill="#1C396B"/>
<path fill-rule="evenodd" clip-rule="evenodd" d="M16 4.33268C15.2636 4.33268 14.6667 4.92963 14.6667 5.66602C14.6667 6.40239 15.2636 6.99935 16 6.99935C16.7364 6.99935 17.3333 6.40239 17.3333 5.66602C17.3333 4.92963 16.7364 4.33268 16 4.33268ZM19.2799 7.95619C19.7337 7.30744 20 6.51782 20 5.66602C20 3.45687 18.2092 1.66602 16 1.66602C13.7908 1.66602 12 3.45687 12 5.66602C12 6.51782 12.2663 7.30744 12.7201 7.95619C11.8351 8.49665 11.0199 9.25295 10.305 10.1912C9.16211 11.6909 7.88371 12.3327 6.73093 12.3327H5.33333C4.59696 12.3327 4 12.9296 4 13.6661C4 14.4023 4.59696 14.9994 5.33333 14.9994H6.73093C8.9474 14.9994 10.9379 13.7602 12.426 11.8075C13.5993 10.2678 14.8805 9.66602 16 9.66602C17.1195 9.66602 18.4007 10.2678 19.574 11.8075C21.0621 13.7602 23.0527 14.9994 25.2691 14.9994H26.6667C27.4031 14.9994 28 14.4023 28 13.6661C28 12.9296 27.4031 12.3327 26.6667 12.3327H25.2691C24.1163 12.3327 22.8379 11.6909 21.6951 10.1912C20.98 9.25295 20.1649 8.49665 19.2799 7.95619Z" fill="#1C396B"/>
</svg>
