<svg width="32" height="32" viewBox="0 0 32 32" fill="none" xmlns="http://www.w3.org/2000/svg">
<path opacity="0.4" d="M28.6674 9C29.2196 9 29.6674 9.44772 29.6674 10V18.0664C29.6674 19.1447 29.6638 20.1244 29.6464 21.0131C28.6919 18.4741 26.2427 16.6667 23.3704 16.6667C19.7839 16.6671 16.8556 19.4839 16.6764 23.026L16.6674 23.3711C16.6676 26.2427 18.4742 28.6913 21.0123 29.6459C20.1242 29.6631 19.1446 29.6667 18.0671 29.6667H13.9343C11.4799 29.6667 9.53568 29.6667 8.01497 29.4623C6.45204 29.252 5.18713 28.8089 4.18945 27.8112C3.19181 26.8135 2.74858 25.5487 2.53841 23.9857C2.33396 22.4649 2.33396 20.5208 2.33398 18.0664V10C2.33398 9.44783 2.78185 9.00017 3.33398 9H28.6674Z" fill="#1C396B"/>
<path d="M18.6673 13C19.2196 13 19.6673 13.4477 19.6673 14C19.6673 14.5523 19.2196 15 18.6673 15H13.334C12.7817 15 12.334 14.5523 12.334 14C12.334 13.4477 12.7817 13 13.334 13H18.6673Z" fill="#1C396B"/>
<path d="M25.8896 23.3712C25.8896 21.9801 24.762 20.8525 23.3711 20.8525C21.9801 20.8525 20.8525 21.9801 20.8525 23.3712C20.8527 24.762 21.9801 25.8897 23.3711 25.8897C24.0668 25.8897 24.6947 25.6089 25.1517 25.1519C25.6088 24.6948 25.8895 24.0668 25.8896 23.3712ZM28.4081 23.3712C28.4081 24.3047 28.1525 25.1793 27.7096 25.9291L29.2985 27.5179C29.7901 28.0097 29.7903 28.8069 29.2985 29.2987C28.8068 29.7903 28.0096 29.7903 27.5178 29.2987L25.9277 27.7085C25.178 28.1512 24.3044 28.4083 23.3711 28.4083C20.5892 28.4083 18.3341 26.1529 18.334 23.3712C18.334 20.5892 20.5892 18.334 23.3711 18.334C26.1529 18.334 28.4081 20.5892 28.4081 23.3712Z" fill="#1C396B"/>
<path d="M20.0383 2.33399C21.0929 2.33399 21.9772 2.33303 22.7063 2.4004C23.4633 2.47041 24.1545 2.62117 24.8156 2.97721C25.4764 3.33325 25.9672 3.81895 26.4197 4.4004C26.8556 4.96036 27.3095 5.68087 27.852 6.54101L29.4809 9.12565C29.6305 9.36279 29.686 9.62789 29.6593 9.88346C29.6013 9.38645 29.1797 9.00065 28.6672 9.00065H26.3677L25.6203 7.81576C25.052 6.9148 24.6707 6.31425 24.3273 5.87305C24.0012 5.45409 23.7668 5.25816 23.5331 5.13216C23.2991 5.00616 23.0011 4.91445 22.4549 4.86393C21.8805 4.81084 21.1429 4.81055 20.0383 4.81055H17.3025V9.00065H14.6997V4.81055H12.0357C10.9552 4.81055 10.2347 4.81155 9.67237 4.86264C9.13784 4.91124 8.84452 4.99776 8.61379 5.11915C8.383 5.24068 8.14943 5.43125 7.82212 5.83659C7.47799 6.26284 7.09509 6.84305 6.52133 7.7142L5.67368 9.00065H3.33384C2.82133 9.00081 2.39839 9.38649 2.34035 9.88346C2.31287 9.61996 2.37392 9.34644 2.53305 9.10483L4.31431 6.4004C4.86231 5.56835 5.32095 4.86912 5.75832 4.32748C6.21244 3.76516 6.70068 3.29549 7.35207 2.95248C8.00352 2.60945 8.68156 2.46532 9.42368 2.39779C10.1383 2.33281 11.0038 2.33399 12.0357 2.33399H20.0383Z" fill="#1C396B"/>
</svg>
