<svg width="32" height="32" viewBox="0 0 32 32" fill="none" xmlns="http://www.w3.org/2000/svg">
<path opacity="0.4" d="M14.5549 1.99647C15.0461 1.81119 15.529 1.66602 16.002 1.66602C16.4748 1.66602 16.9578 1.81119 17.4489 1.99647C17.9461 2.18399 18.567 2.45962 19.3413 2.80335C20.4794 3.30859 21.9817 3.88844 23.5929 4.34646C24.7686 4.68068 25.7194 4.95092 26.4394 5.23015C27.1632 5.51079 27.8193 5.8589 28.261 6.44367C28.6889 7.01002 28.8535 7.67167 28.9291 8.38523C29.002 9.07398 29.002 9.93816 29.002 10.9845V14.9104C29.002 18.9849 27.1626 22.2159 24.9397 24.6241C22.7236 27.0248 20.0836 28.6579 18.3434 29.5763L18.2594 29.6207C17.5182 30.0124 16.9125 30.3327 16.002 30.3327C15.0913 30.3327 14.4856 30.0124 13.7445 29.6207L13.6605 29.5763C11.9204 28.6579 9.28031 27.0248 7.06421 24.6241C4.84122 22.2159 3.00195 18.9849 3.00195 14.9104V10.9845C3.00193 9.93817 3.00191 9.07396 3.07486 8.38523C3.15045 7.67167 3.31503 7.01002 3.74282 6.44367C4.18453 5.8589 4.84067 5.51079 5.56439 5.23015C6.2845 4.95091 7.23513 4.6807 8.41094 4.34647C10.0222 3.88844 11.5244 3.3086 12.6625 2.80338C13.4369 2.45963 14.0578 2.18399 14.5549 1.99647Z" fill="#1C396B"/>
<path d="M17.9051 20.1885C18.2956 20.5791 18.9288 20.5791 19.3193 20.1885L22.7055 16.8024C23.096 16.4119 23.096 15.7787 22.7055 15.3881C22.4883 15.1709 22.196 15.0745 21.9121 15.0989C21.8083 15.1079 21.7013 15.0763 21.6349 14.9957C21.5767 14.9252 21.5157 14.8516 21.4524 14.7757C20.9109 14.1268 20.1801 13.286 19.4463 12.5521C18.7124 11.8183 17.8716 11.0875 17.2227 10.546C17.1468 10.4826 17.0733 10.4217 17.0027 10.3635C16.9221 10.2971 16.8905 10.1902 16.8995 10.0863C16.9239 9.80241 16.8275 9.51012 16.6103 9.29289C16.2197 8.90237 15.5865 8.90237 15.196 9.29289L11.8098 12.6791C11.4193 13.0697 11.4193 13.7028 11.8098 14.0933C12.027 14.3105 12.3193 14.4069 12.6032 14.3825C12.7071 14.3736 12.814 14.4052 12.8804 14.4857C12.9386 14.5564 12.9995 14.6299 13.0629 14.7057C13.3305 15.0265 13.6444 15.3941 13.982 15.7725C14.0767 15.8785 14.0727 16.0401 13.9723 16.1407L10.7226 19.3903C10.2019 19.9111 10.2019 20.7552 10.7226 21.2759C11.2433 21.7967 12.0875 21.7967 12.6082 21.2759L15.8579 18.0263C15.9584 17.9257 16.12 17.9219 16.226 18.0164C16.6044 18.354 16.9719 18.6679 17.2927 18.9355C17.3685 18.9988 17.4421 19.0597 17.5127 19.118C17.5932 19.1844 17.6248 19.2913 17.6159 19.3952C17.5915 19.6791 17.6879 19.9713 17.9051 20.1885Z" fill="#1C396B"/>
</svg>
